<mxfile host="app.diagrams.net" modified="2021-04-25T19:06:52.366Z" agent="5.0 (Macintosh)" etag="PUceY9lwO0I21pqHb-dC" version="14.6.6" type="github">
  <diagram name="Page-1" id="e7e014a7-5840-1c2e-5031-d8a46d1fe8dd">
    <mxGraphModel dx="717" dy="500" grid="1" gridSize="10" guides="1" tooltips="1" connect="1" arrows="1" fold="1" page="1" pageScale="1" pageWidth="1169" pageHeight="826" background="#ffffff" math="0" shadow="0">
      <root>
        <mxCell id="0" />
        <mxCell id="1" parent="0" />
        <mxCell id="mGvDpG4sCkqU4JVekKyu-41" value="Object" style="html=1;" vertex="1" parent="1">
          <mxGeometry x="350" y="340" width="110" height="50" as="geometry" />
        </mxCell>
      </root>
    </mxGraphModel>
  </diagram>
</mxfile>
